/* XPM */
static char * c_xpm[] = {
"18 18 2 1",
" 	c None",
".	c #48D824",
"                  ",
"                  ",
"                  ",
"       .......    ",
"     ..........   ",
"     ...    ...   ",
"    ...     ...   ",
"   ...            ",
"   ...            ",
"   ..             ",
"   ..             ",
"   ...      ..    ",
"   ...     ...    ",
"   ....  ....     ",
"    .........     ",
"     .....        ",
"                  ",
"                  "};
