/* XPM */
static char * Dtml_g_xpm[] = {
"18 18 2 1",
" 	c None",
".	c #48D824",
"   ....           ",
"    ..  ...       ",
"  . ..   ..       ",
" .....   ..       ",
".. ...  ....      ",
".   ..   ..       ",
".. ...   ..       ",
" ......  ..  .    ",
"  ..     .....    ",
"          ..      ",
"              ... ",
"               .. ",
"    .. ..      .. ",
"   .......     .. ",
"  ..  .  ..    .. ",
"  ..  .  ..    .. ",
"  ..  .  ..    .. ",
"  ..  .  ...  ...."};
